<?xml version="1.0" encoding="UTF-8"?><svg id="Layer_5" xmlns="http://www.w3.org/2000/svg" viewBox="0 0 1000 1000"><defs><style>.cls-1{stroke-width:15px;}.cls-1,.cls-2,.cls-3{fill:none;stroke-miterlimit:10;}.cls-1,.cls-3{stroke:#ff262c;}.cls-2{stroke:navy;stroke-width:35px;}.cls-3{stroke-width:31px;}</style></defs><path class="cls-2" d="m169.5,592.5c-4.3,81.6,61.92,143.09,138,143.3h0s174.15,0,174.15,0c32.04,22.27,70.18,35.19,111.13,35.19s79.09-12.93,111.13-35.19h11.28c19.51,21.74,46.52,35.19,76.38,35.19,59.47,0,107.69-53.4,107.69-119.27s-44.93-115.55-101.55-119.07c-7.88-114.69-96.61-205.11-204.91-205.11-50.28,0-96.33,19.5-132.04,51.85-7.3-1.69-14.86-2.58-22.6-2.58-39.84,0-74.73,23.42-94.08,58.51-11.54-3.46-23.68-5.32-36.21-5.32-42.89,0-66.35,16.5-100.35,47.5"/><path class="cls-3" d="m516,299.9c-.63-1.52-1.73-7.17-2.05-8.76-2.35-11.71-5.94-22.14-10.65-31.32-17.28-33.65-49.75-50.38-92.55-50.82h-1.02c-40.45,0-76.22,23.26-96.8,57.59-20.58-34.32-56.35-57.59-96.8-57.59h-1.02c-63.18.65-114.09,56.48-114.12,125.14,0,40.97,16.51,99.1,48.7,146.93,61.34,91.14,163.23,170.89,163.23,170.89,0,0,30.56-23.91,68.27-60.51,10.72-10.41,22.03-21.84,33.37-34.04"/><path class="cls-1" d="m402.42,553.92c.16,0,.32,0,.47,0l107.83-2.55,18.52-108.9c.72-3.84,3.76-6.2,6.77-5.28,2.22.68,3.89,3,4.24,5.86l18.27,139.62,15.55-69.04c.67-2.99,2.8-5.06,5.24-5.09h.11c2.41,0,4.55,1.97,5.31,4.89l9.92,37.96h59.64c2.9-11.2,12.38-17.29,21.18-13.6,8.8,3.69,13.59,15.75,10.69,26.95-2.26,8.75-8.69,14.67-15.93,14.67l-.03-.05c-6.96-.03-13.19-5.51-15.69-13.78h-63.9c-2.41-.02-4.55-1.98-5.32-4.89l-5.49-21.03-17.36,77.16c-.69,3.05-2.89,5.15-5.39,5.16h-.35c-2.61-.16-4.78-2.62-5.21-5.91l-17.89-136.87-13.07,80.99c-.62,3.17-2.85,5.39-5.42,5.39l-112.24,2.55"/></svg>